<svg width="26" height="20" viewBox="0 0 42 35" fill="none" xmlns="http://www.w3.org/2000/svg">
<path d="M20.9997 7.54167C26.0597 7.54167 30.1663 11.555 30.1663 16.5C30.1663 17.6646 29.928 18.7575 29.5063 19.7788L34.8597 25.0104C37.628 22.7529 39.8097 19.8325 41.148 16.5C37.9763 8.63458 30.148 3.0625 20.9813 3.0625C18.4147 3.0625 15.958 3.51042 13.6847 4.31667L17.6447 8.18667C18.6897 7.77458 19.808 7.54167 20.9997 7.54167ZM2.66634 2.65042L6.84634 6.73542L7.68967 7.55958C4.64634 9.87083 2.26301 12.9525 0.833008 16.5C4.00467 24.3654 11.833 29.9375 20.9997 29.9375C23.8413 29.9375 26.5547 29.4 29.0297 28.4325L29.7997 29.185L35.1713 34.4167L37.4997 32.1413L4.99467 0.375L2.66634 2.65042ZM12.8047 12.5583L15.6463 15.3354C15.5547 15.7117 15.4997 16.1058 15.4997 16.5C15.4997 19.4742 17.9563 21.875 20.9997 21.875C21.403 21.875 21.8063 21.8213 22.1913 21.7317L25.033 24.5087C23.8047 25.1 22.448 25.4583 20.9997 25.4583C15.9397 25.4583 11.833 21.445 11.833 16.5C11.833 15.0846 12.1997 13.7588 12.8047 12.5583ZM20.7063 11.1608L26.4813 16.8046L26.518 16.5179C26.518 13.5438 24.0613 11.1429 21.018 11.1429L20.7063 11.1608Z" fill="#d8d8d8" fill-opacity="0.87"/>
</svg>
