<svg width="26" height="18"  viewBox="0 0 41 27" fill="none" xmlns="http://www.w3.org/2000/svg">
<path d="M20.5003 0.0625C11.542 0.0625 3.89158 5.63458 0.791992 13.5C3.89158 21.3654 11.542 26.9375 20.5003 26.9375C29.4587 26.9375 37.1091 21.3654 40.2087 13.5C37.1091 5.63458 29.4587 0.0625 20.5003 0.0625ZM20.5003 22.4583C15.5553 22.4583 11.542 18.445 11.542 13.5C11.542 8.555 15.5553 4.54167 20.5003 4.54167C25.4453 4.54167 29.4587 8.555 29.4587 13.5C29.4587 18.445 25.4453 22.4583 20.5003 22.4583ZM20.5003 8.125C17.5262 8.125 15.1253 10.5258 15.1253 13.5C15.1253 16.4742 17.5262 18.875 20.5003 18.875C23.4745 18.875 25.8753 16.4742 25.8753 13.5C25.8753 10.5258 23.4745 8.125 20.5003 8.125Z" fill="#d8d8d8" fill-opacity="0.87"/>
</svg>
