<svg width="542" height="809" viewBox="0 0 542 809" fill="none" xmlns="http://www.w3.org/2000/svg">
<g filter="url(#filter0_d_925_9)">
<rect x="25" y="95" width="504.497" height="508" rx="252.248" fill="#238AF3"/>
<path d="M123.33 376.098H112.119V349.998H86.1937V339.137H112.119V313.036H123.33V339.137H149.256V349.998H123.33V376.098ZM211.437 385.032H172.548V374.522H186.387V282.031H172.198V271.17H197.598V374.522H211.437V385.032ZM300.655 370.318C296.218 375.456 291.196 379.427 285.591 382.229C279.985 385.032 274.088 386.434 267.898 386.434C261.826 386.434 255.986 384.974 250.381 382.054C244.775 379.135 239.812 375.106 235.491 369.967C231.17 364.829 227.725 358.698 225.156 351.574C222.704 344.334 221.477 336.393 221.477 327.751C221.477 319.81 222.587 312.336 224.806 305.329C227.141 298.205 230.353 292.016 234.44 286.76C238.528 281.505 243.491 277.36 249.33 274.323C255.169 271.287 261.65 269.769 268.774 269.769C276.014 269.769 282.496 271.345 288.218 274.498C294.057 277.652 298.962 281.856 302.933 287.111C307.02 292.483 310.115 298.731 312.217 305.854C314.319 312.978 315.37 320.51 315.37 328.452C315.37 337.093 314.027 344.976 311.341 352.1C308.655 359.107 305.093 365.179 300.655 370.318ZM243.199 361.909C246.469 366.114 250.206 369.442 254.41 371.894C258.731 374.347 263.285 375.573 268.073 375.573C272.745 375.573 277.241 374.405 281.562 372.069C285.999 369.734 289.911 366.464 293.298 362.26C296.568 358.056 299.196 353.092 301.181 347.37C303.166 341.531 304.159 335.166 304.159 328.276C304.159 322.904 303.458 317.416 302.057 311.81C300.655 306.088 298.553 300.891 295.751 296.22C292.714 291.665 288.977 287.928 284.54 285.009C280.102 282.089 274.847 280.629 268.774 280.629C262.701 280.629 257.388 282.031 252.833 284.834C248.396 287.636 244.659 291.315 241.622 295.869C238.703 300.424 236.484 305.562 234.966 311.285C233.448 316.89 232.689 322.379 232.689 327.751C232.689 334.641 233.623 341.006 235.491 346.845C237.36 352.684 239.929 357.705 243.199 361.909ZM408.599 370.318C404.161 375.456 399.139 379.427 393.534 382.229C387.928 385.032 382.031 386.434 375.841 386.434C369.769 386.434 363.93 384.974 358.324 382.054C352.719 379.135 347.755 375.106 343.434 369.967C339.113 364.829 335.668 358.698 333.099 351.574C330.647 344.334 329.421 336.393 329.421 327.751C329.421 319.81 330.53 312.336 332.749 305.329C335.085 298.205 338.296 292.016 342.383 286.76C346.471 281.505 351.434 277.36 357.273 274.323C363.112 271.287 369.593 269.769 376.717 269.769C383.958 269.769 390.439 271.345 396.161 274.498C402 277.652 406.905 281.856 410.876 287.111C414.963 292.483 418.058 298.731 420.16 305.854C422.262 312.978 423.313 320.51 423.313 328.452C423.313 337.093 421.97 344.976 419.284 352.1C416.598 359.107 413.036 365.179 408.599 370.318ZM351.142 361.909C354.412 366.114 358.149 369.442 362.353 371.894C366.674 374.347 371.228 375.573 376.016 375.573C380.688 375.573 385.184 374.405 389.505 372.069C393.942 369.734 397.855 366.464 401.241 362.26C404.511 358.056 407.139 353.092 409.124 347.37C411.109 341.531 412.102 335.166 412.102 328.276C412.102 322.904 411.401 317.416 410 311.81C408.599 306.088 406.496 300.891 403.694 296.22C400.657 291.665 396.92 287.928 392.483 285.009C388.045 282.089 382.79 280.629 376.717 280.629C370.645 280.629 365.331 282.031 360.776 284.834C356.339 287.636 352.602 291.315 349.565 295.869C346.646 300.424 344.427 305.562 342.909 311.285C341.391 316.89 340.632 322.379 340.632 327.751C340.632 334.641 341.566 341.006 343.434 346.845C345.303 352.684 347.872 357.705 351.142 361.909Z" fill="white"/>
<path d="M240.308 437.47C239.495 437.47 238.688 437.376 237.888 437.19C237.101 436.99 236.388 436.71 235.748 436.35L236.448 434.49C236.968 434.783 237.555 435.01 238.208 435.17C238.861 435.33 239.515 435.41 240.168 435.41C240.728 435.41 241.208 435.356 241.608 435.25C242.008 435.13 242.315 434.956 242.528 434.73C242.755 434.503 242.868 434.243 242.868 433.95C242.868 433.523 242.681 433.203 242.308 432.99C241.948 432.763 241.428 432.65 240.748 432.65H238.688V430.97H240.548C240.975 430.97 241.335 430.923 241.628 430.83C241.935 430.736 242.168 430.596 242.328 430.41C242.488 430.223 242.568 430.003 242.568 429.75C242.568 429.496 242.468 429.276 242.268 429.09C242.081 428.89 241.808 428.743 241.448 428.65C241.088 428.543 240.655 428.49 240.148 428.49C239.615 428.49 239.061 428.556 238.488 428.69C237.928 428.823 237.355 429.016 236.768 429.27L236.128 427.43C236.808 427.123 237.468 426.89 238.108 426.73C238.761 426.556 239.408 426.463 240.048 426.45C241.021 426.41 241.888 426.51 242.648 426.75C243.408 426.99 244.008 427.336 244.448 427.79C244.888 428.243 245.108 428.776 245.108 429.39C245.108 429.896 244.948 430.356 244.628 430.77C244.321 431.17 243.895 431.483 243.348 431.71C242.815 431.936 242.201 432.05 241.508 432.05L241.588 431.51C242.775 431.51 243.708 431.75 244.388 432.23C245.068 432.696 245.408 433.336 245.408 434.15C245.408 434.803 245.188 435.383 244.748 435.89C244.308 436.383 243.701 436.77 242.928 437.05C242.168 437.33 241.295 437.47 240.308 437.47ZM254.463 437.29V435.13L254.323 434.67V430.89C254.323 430.156 254.103 429.59 253.663 429.19C253.223 428.776 252.556 428.57 251.663 428.57C251.063 428.57 250.469 428.663 249.883 428.85C249.309 429.036 248.823 429.296 248.423 429.63L247.443 427.81C248.016 427.37 248.696 427.043 249.483 426.83C250.283 426.603 251.109 426.49 251.963 426.49C253.509 426.49 254.703 426.863 255.543 427.61C256.396 428.343 256.823 429.483 256.823 431.03V437.29H254.463ZM251.103 437.43C250.303 437.43 249.603 437.296 249.003 437.03C248.403 436.75 247.936 436.37 247.603 435.89C247.283 435.396 247.123 434.843 247.123 434.23C247.123 433.63 247.263 433.09 247.543 432.61C247.836 432.13 248.309 431.75 248.963 431.47C249.616 431.19 250.483 431.05 251.563 431.05H254.663V432.71H251.743C250.889 432.71 250.316 432.85 250.023 433.13C249.729 433.396 249.583 433.73 249.583 434.13C249.583 434.583 249.763 434.943 250.123 435.21C250.483 435.476 250.983 435.61 251.623 435.61C252.236 435.61 252.783 435.47 253.263 435.19C253.756 434.91 254.109 434.496 254.323 433.95L254.743 435.45C254.503 436.076 254.069 436.563 253.443 436.91C252.829 437.256 252.049 437.43 251.103 437.43ZM267.576 437.29L263.716 432.17L265.756 430.91L270.516 437.29H267.576ZM259.916 437.29V426.61H262.416V437.29H259.916ZM261.676 433.01V430.93H265.296V433.01H261.676ZM265.996 432.25L263.656 431.97L267.576 426.61H270.256L265.996 432.25ZM278.564 437.29V435.13L278.424 434.67V430.89C278.424 430.156 278.204 429.59 277.764 429.19C277.324 428.776 276.658 428.57 275.764 428.57C275.164 428.57 274.571 428.663 273.984 428.85C273.411 429.036 272.924 429.296 272.524 429.63L271.544 427.81C272.118 427.37 272.798 427.043 273.584 426.83C274.384 426.603 275.211 426.49 276.064 426.49C277.611 426.49 278.804 426.863 279.644 427.61C280.498 428.343 280.924 429.483 280.924 431.03V437.29H278.564ZM275.204 437.43C274.404 437.43 273.704 437.296 273.104 437.03C272.504 436.75 272.038 436.37 271.704 435.89C271.384 435.396 271.224 434.843 271.224 434.23C271.224 433.63 271.364 433.09 271.644 432.61C271.938 432.13 272.411 431.75 273.064 431.47C273.718 431.19 274.584 431.05 275.664 431.05H278.764V432.71H275.844C274.991 432.71 274.418 432.85 274.124 433.13C273.831 433.396 273.684 433.73 273.684 434.13C273.684 434.583 273.864 434.943 274.224 435.21C274.584 435.476 275.084 435.61 275.724 435.61C276.338 435.61 276.884 435.47 277.364 435.19C277.858 434.91 278.211 434.496 278.424 433.95L278.844 435.45C278.604 436.076 278.171 436.563 277.544 436.91C276.931 437.256 276.151 437.43 275.204 437.43ZM287.261 437.47C286.448 437.47 285.641 437.376 284.841 437.19C284.055 436.99 283.341 436.71 282.701 436.35L283.401 434.49C283.921 434.783 284.508 435.01 285.161 435.17C285.815 435.33 286.468 435.41 287.121 435.41C287.681 435.41 288.161 435.356 288.561 435.25C288.961 435.13 289.268 434.956 289.481 434.73C289.708 434.503 289.821 434.243 289.821 433.95C289.821 433.523 289.635 433.203 289.261 432.99C288.901 432.763 288.381 432.65 287.701 432.65H285.641V430.97H287.501C287.928 430.97 288.288 430.923 288.581 430.83C288.888 430.736 289.121 430.596 289.281 430.41C289.441 430.223 289.521 430.003 289.521 429.75C289.521 429.496 289.421 429.276 289.221 429.09C289.035 428.89 288.761 428.743 288.401 428.65C288.041 428.543 287.608 428.49 287.101 428.49C286.568 428.49 286.015 428.556 285.441 428.69C284.881 428.823 284.308 429.016 283.721 429.27L283.081 427.43C283.761 427.123 284.421 426.89 285.061 426.73C285.715 426.556 286.361 426.463 287.001 426.45C287.975 426.41 288.841 426.51 289.601 426.75C290.361 426.99 290.961 427.336 291.401 427.79C291.841 428.243 292.061 428.776 292.061 429.39C292.061 429.896 291.901 430.356 291.581 430.77C291.275 431.17 290.848 431.483 290.301 431.71C289.768 431.936 289.155 432.05 288.461 432.05L288.541 431.51C289.728 431.51 290.661 431.75 291.341 432.23C292.021 432.696 292.361 433.336 292.361 434.15C292.361 434.803 292.141 435.383 291.701 435.89C291.261 436.383 290.655 436.77 289.881 437.05C289.121 437.33 288.248 437.47 287.261 437.47ZM299.696 437.43C298.603 437.43 297.629 437.196 296.776 436.73C295.923 436.25 295.249 435.596 294.756 434.77C294.263 433.943 294.016 433.003 294.016 431.95C294.016 430.883 294.263 429.943 294.756 429.13C295.249 428.303 295.923 427.656 296.776 427.19C297.629 426.723 298.603 426.49 299.696 426.49C300.803 426.49 301.783 426.723 302.636 427.19C303.503 427.656 304.176 428.296 304.656 429.11C305.149 429.923 305.396 430.87 305.396 431.95C305.396 433.003 305.149 433.943 304.656 434.77C304.176 435.596 303.503 436.25 302.636 436.73C301.783 437.196 300.803 437.43 299.696 437.43ZM299.696 435.29C300.309 435.29 300.856 435.156 301.336 434.89C301.816 434.623 302.189 434.236 302.456 433.73C302.736 433.223 302.876 432.63 302.876 431.95C302.876 431.256 302.736 430.663 302.456 430.17C302.189 429.663 301.816 429.276 301.336 429.01C300.856 428.743 300.316 428.61 299.716 428.61C299.103 428.61 298.556 428.743 298.076 429.01C297.609 429.276 297.236 429.663 296.956 430.17C296.676 430.663 296.536 431.256 296.536 431.95C296.536 432.63 296.676 433.223 296.956 433.73C297.236 434.236 297.609 434.623 298.076 434.89C298.556 435.156 299.096 435.29 299.696 435.29ZM307.866 437.29V426.61H313.086C314.379 426.61 315.392 426.85 316.126 427.33C316.872 427.81 317.246 428.49 317.246 429.37C317.246 430.236 316.899 430.916 316.206 431.41C315.512 431.89 314.592 432.13 313.446 432.13L313.746 431.51C315.039 431.51 315.999 431.75 316.626 432.23C317.266 432.696 317.586 433.383 317.586 434.29C317.586 435.236 317.232 435.976 316.526 436.51C315.819 437.03 314.746 437.29 313.306 437.29H307.866ZM310.246 435.47H313.106C313.786 435.47 314.299 435.363 314.646 435.15C314.992 434.923 315.166 434.583 315.166 434.13C315.166 433.65 315.006 433.296 314.686 433.07C314.366 432.843 313.866 432.73 313.186 432.73H310.246V435.47ZM310.246 431.07H312.866C313.506 431.07 313.986 430.956 314.306 430.73C314.639 430.49 314.806 430.156 314.806 429.73C314.806 429.29 314.639 428.963 314.306 428.75C313.986 428.536 313.506 428.43 312.866 428.43H310.246V431.07Z" fill="white"/>
</g>
<g filter="url(#filter1_d_925_9)">
<rect x="221.496" y="469" width="308" height="308" rx="154" fill="#252774"/>
<path d="M349.697 640.462C346.895 643.264 343.61 645.487 339.841 647.129C336.073 648.772 332.014 649.593 327.666 649.593C323.511 649.593 319.598 648.869 315.926 647.419C312.351 645.873 309.162 643.699 306.36 640.897L313.172 634.809C315.008 636.645 317.182 638.095 319.694 639.158C322.207 640.124 324.864 640.607 327.666 640.607C330.758 640.607 333.609 640.027 336.218 638.868C338.923 637.708 341.291 636.114 343.32 634.085C345.252 632.152 346.798 629.881 347.958 627.272C349.214 624.567 349.842 621.716 349.842 618.721C349.842 615.725 349.214 612.923 347.958 610.314C346.798 607.705 345.252 605.386 343.32 603.357C341.291 601.425 338.923 599.927 336.218 598.864C333.512 597.704 330.662 597.125 327.666 597.125C324.284 597.125 321.192 597.704 318.39 598.864C315.588 599.927 313.365 601.666 311.723 604.082V554.222H353.321V570.89H344.624V563.208H320.999V589.298C322.062 589.008 323.125 588.766 324.188 588.573C325.347 588.283 326.555 588.138 327.811 588.138C331.966 588.138 335.928 588.96 339.696 590.602C343.561 592.148 346.895 594.274 349.697 596.98C352.499 599.782 354.722 603.067 356.365 606.836C358.104 610.508 358.974 614.469 358.974 618.721C358.974 622.973 358.104 626.983 356.365 630.751C354.722 634.519 352.499 637.757 349.697 640.462ZM440.571 636.259C436.899 640.51 432.744 643.796 428.106 646.115C423.468 648.434 418.588 649.593 413.467 649.593C408.442 649.593 403.611 648.386 398.973 645.97C394.335 643.554 390.228 640.221 386.653 635.969C383.078 631.717 380.227 626.644 378.101 620.75C376.072 614.759 375.057 608.189 375.057 601.038C375.057 594.467 375.975 588.283 377.811 582.486C379.744 576.591 382.401 571.47 385.783 567.122C389.165 562.774 393.272 559.343 398.103 556.831C402.934 554.319 408.297 553.063 414.192 553.063C420.182 553.063 425.545 554.367 430.28 556.976C435.111 559.585 439.17 563.063 442.455 567.412C445.837 571.857 448.398 577.026 450.137 582.92C451.876 588.815 452.746 595.047 452.746 601.618C452.746 608.768 451.635 615.291 449.412 621.185C447.19 626.983 444.243 632.007 440.571 636.259ZM393.03 629.302C395.736 632.78 398.828 635.534 402.306 637.563C405.882 639.592 409.65 640.607 413.612 640.607C417.477 640.607 421.197 639.641 424.772 637.708C428.444 635.776 431.681 633.07 434.483 629.591C437.189 626.113 439.363 622.006 441.006 617.271C442.648 612.44 443.47 607.174 443.47 601.473C443.47 597.028 442.89 592.487 441.73 587.848C440.571 583.114 438.832 578.814 436.513 574.949C434 571.18 430.908 568.088 427.236 565.672C423.564 563.257 419.216 562.049 414.192 562.049C409.167 562.049 404.77 563.208 401.002 565.527C397.33 567.847 394.238 570.89 391.726 574.659C389.31 578.427 387.474 582.679 386.218 587.414C384.962 592.052 384.334 596.593 384.334 601.038C384.334 606.739 385.107 612.005 386.653 616.837C388.199 621.668 390.325 625.823 393.03 629.302Z" fill="white"/>
<path d="M303.616 698.737L303.736 696.637C303.829 696.651 303.916 696.664 303.996 696.677C304.076 696.691 304.149 696.697 304.216 696.697C304.629 696.697 304.949 696.571 305.176 696.317C305.403 696.064 305.569 695.724 305.676 695.297C305.796 694.857 305.876 694.371 305.916 693.837C305.969 693.291 306.009 692.744 306.036 692.197L306.216 688.077H314.856V698.757H312.356V689.517L312.936 690.197H307.856L308.396 689.497L308.256 692.317C308.216 693.264 308.136 694.144 308.016 694.957C307.909 695.757 307.736 696.457 307.496 697.057C307.269 697.657 306.949 698.124 306.536 698.457C306.136 698.791 305.623 698.957 304.996 698.957C304.796 698.957 304.576 698.937 304.336 698.897C304.109 698.857 303.869 698.804 303.616 698.737ZM323.203 698.897C322.016 698.897 320.976 698.664 320.083 698.197C319.203 697.717 318.516 697.064 318.023 696.237C317.543 695.411 317.303 694.471 317.303 693.417C317.303 692.351 317.536 691.411 318.003 690.597C318.483 689.771 319.136 689.124 319.963 688.657C320.803 688.191 321.756 687.957 322.823 687.957C323.863 687.957 324.79 688.184 325.603 688.637C326.416 689.091 327.056 689.731 327.523 690.557C327.99 691.384 328.223 692.357 328.223 693.477C328.223 693.584 328.216 693.704 328.203 693.837C328.203 693.971 328.196 694.097 328.183 694.217H319.283V692.557H326.863L325.883 693.077C325.896 692.464 325.77 691.924 325.503 691.457C325.236 690.991 324.87 690.624 324.403 690.357C323.95 690.091 323.423 689.957 322.823 689.957C322.21 689.957 321.67 690.091 321.203 690.357C320.75 690.624 320.39 690.997 320.123 691.477C319.87 691.944 319.743 692.497 319.743 693.137V693.537C319.743 694.177 319.89 694.744 320.183 695.237C320.476 695.731 320.89 696.111 321.423 696.377C321.956 696.644 322.57 696.777 323.263 696.777C323.863 696.777 324.403 696.684 324.883 696.497C325.363 696.311 325.79 696.017 326.163 695.617L327.503 697.157C327.023 697.717 326.416 698.151 325.683 698.457C324.963 698.751 324.136 698.897 323.203 698.897ZM332.767 698.757V689.597L333.347 690.197H329.007V688.077H339.007V690.197H334.687L335.267 689.597V698.757H332.767ZM346.348 698.757V688.077H354.548V690.197H348.268L348.848 689.637V698.757H346.348ZM362.848 698.757V696.597L362.708 696.137V692.357C362.708 691.624 362.488 691.057 362.048 690.657C361.608 690.244 360.941 690.037 360.048 690.037C359.448 690.037 358.854 690.131 358.268 690.317C357.694 690.504 357.208 690.764 356.808 691.097L355.828 689.277C356.401 688.837 357.081 688.511 357.868 688.297C358.668 688.071 359.494 687.957 360.348 687.957C361.894 687.957 363.088 688.331 363.928 689.077C364.781 689.811 365.208 690.951 365.208 692.497V698.757H362.848ZM359.488 698.897C358.688 698.897 357.988 698.764 357.388 698.497C356.788 698.217 356.321 697.837 355.988 697.357C355.668 696.864 355.508 696.311 355.508 695.697C355.508 695.097 355.648 694.557 355.928 694.077C356.221 693.597 356.694 693.217 357.348 692.937C358.001 692.657 358.868 692.517 359.948 692.517H363.048V694.177H360.128C359.274 694.177 358.701 694.317 358.408 694.597C358.114 694.864 357.968 695.197 357.968 695.597C357.968 696.051 358.148 696.411 358.508 696.677C358.868 696.944 359.368 697.077 360.008 697.077C360.621 697.077 361.168 696.937 361.648 696.657C362.141 696.377 362.494 695.964 362.708 695.417L363.128 696.917C362.888 697.544 362.454 698.031 361.828 698.377C361.214 698.724 360.434 698.897 359.488 698.897ZM374.221 698.897C373.354 698.897 372.561 698.697 371.841 698.297C371.134 697.897 370.568 697.297 370.141 696.497C369.728 695.684 369.521 694.657 369.521 693.417C369.521 692.164 369.721 691.137 370.121 690.337C370.534 689.537 371.094 688.944 371.801 688.557C372.508 688.157 373.314 687.957 374.221 687.957C375.274 687.957 376.201 688.184 377.001 688.637C377.814 689.091 378.454 689.724 378.921 690.537C379.401 691.351 379.641 692.311 379.641 693.417C379.641 694.524 379.401 695.491 378.921 696.317C378.454 697.131 377.814 697.764 377.001 698.217C376.201 698.671 375.274 698.897 374.221 698.897ZM368.301 702.637V688.077H370.681V690.597L370.601 693.437L370.801 696.277V702.637H368.301ZM373.941 696.757C374.541 696.757 375.074 696.624 375.541 696.357C376.021 696.091 376.401 695.704 376.681 695.197C376.961 694.691 377.101 694.097 377.101 693.417C377.101 692.724 376.961 692.131 376.681 691.637C376.401 691.131 376.021 690.744 375.541 690.477C375.074 690.211 374.541 690.077 373.941 690.077C373.341 690.077 372.801 690.211 372.321 690.477C371.841 690.744 371.461 691.131 371.181 691.637C370.901 692.131 370.761 692.724 370.761 693.417C370.761 694.097 370.901 694.691 371.181 695.197C371.461 695.704 371.841 696.091 372.321 696.357C372.801 696.624 373.341 696.757 373.941 696.757ZM388.473 698.757V696.597L388.333 696.137V692.357C388.333 691.624 388.113 691.057 387.673 690.657C387.233 690.244 386.566 690.037 385.673 690.037C385.073 690.037 384.479 690.131 383.893 690.317C383.319 690.504 382.833 690.764 382.433 691.097L381.453 689.277C382.026 688.837 382.706 688.511 383.493 688.297C384.293 688.071 385.119 687.957 385.973 687.957C387.519 687.957 388.713 688.331 389.553 689.077C390.406 689.811 390.833 690.951 390.833 692.497V698.757H388.473ZM385.113 698.897C384.313 698.897 383.613 698.764 383.013 698.497C382.413 698.217 381.946 697.837 381.613 697.357C381.293 696.864 381.133 696.311 381.133 695.697C381.133 695.097 381.273 694.557 381.553 694.077C381.846 693.597 382.319 693.217 382.973 692.937C383.626 692.657 384.493 692.517 385.573 692.517H388.673V694.177H385.753C384.899 694.177 384.326 694.317 384.033 694.597C383.739 694.864 383.593 695.197 383.593 695.597C383.593 696.051 383.773 696.411 384.133 696.677C384.493 696.944 384.993 697.077 385.633 697.077C386.246 697.077 386.793 696.937 387.273 696.657C387.766 696.377 388.119 695.964 388.333 695.417L388.753 696.917C388.513 697.544 388.079 698.031 387.453 698.377C386.839 698.724 386.059 698.897 385.113 698.897ZM393.926 698.757V688.077H396.426V692.417H401.806V688.077H404.306V698.757H401.806V694.537H396.426V698.757H393.926ZM409.877 698.757V689.597L410.457 690.197H406.117V688.077H416.117V690.197H411.797L412.377 689.597V698.757H409.877ZM417.93 698.757V688.077H420.43V695.117L426.33 688.077H428.61V698.757H426.11V691.717L420.23 698.757H417.93ZM431.973 698.757V688.077H434.473V695.117L440.373 688.077H442.653V698.757H440.153V691.717L434.273 698.757H431.973Z" fill="white"/>
</g>
<g filter="url(#filter2_d_925_9)">
<rect x="395" y="6" width="134" height="134" rx="67" fill="#252774"/>
</g>
<defs>
<filter id="filter0_d_925_9" x="0.6" y="89.6" width="541.296" height="544.8" filterUnits="userSpaceOnUse" color-interpolation-filters="sRGB">
<feFlood flood-opacity="0" result="BackgroundImageFix"/>
<feColorMatrix in="SourceAlpha" type="matrix" values="0 0 0 0 0 0 0 0 0 0 0 0 0 0 0 0 0 0 127 0" result="hardAlpha"/>
<feOffset dx="-6" dy="13"/>
<feGaussianBlur stdDeviation="9.2"/>
<feComposite in2="hardAlpha" operator="out"/>
<feColorMatrix type="matrix" values="0 0 0 0 0.145098 0 0 0 0 0.152941 0 0 0 0 0.454902 0 0 0 0.1 0"/>
<feBlend mode="normal" in2="BackgroundImageFix" result="effect1_dropShadow_925_9"/>
<feBlend mode="normal" in="SourceGraphic" in2="effect1_dropShadow_925_9" result="shape"/>
</filter>
<filter id="filter1_d_925_9" x="197.096" y="463.6" width="344.8" height="344.8" filterUnits="userSpaceOnUse" color-interpolation-filters="sRGB">
<feFlood flood-opacity="0" result="BackgroundImageFix"/>
<feColorMatrix in="SourceAlpha" type="matrix" values="0 0 0 0 0 0 0 0 0 0 0 0 0 0 0 0 0 0 127 0" result="hardAlpha"/>
<feOffset dx="-6" dy="13"/>
<feGaussianBlur stdDeviation="9.2"/>
<feComposite in2="hardAlpha" operator="out"/>
<feColorMatrix type="matrix" values="0 0 0 0 0.145098 0 0 0 0 0.152941 0 0 0 0 0.454902 0 0 0 0.1 0"/>
<feBlend mode="normal" in2="BackgroundImageFix" result="effect1_dropShadow_925_9"/>
<feBlend mode="normal" in="SourceGraphic" in2="effect1_dropShadow_925_9" result="shape"/>
</filter>
<filter id="filter2_d_925_9" x="370.6" y="0.6" width="170.8" height="170.8" filterUnits="userSpaceOnUse" color-interpolation-filters="sRGB">
<feFlood flood-opacity="0" result="BackgroundImageFix"/>
<feColorMatrix in="SourceAlpha" type="matrix" values="0 0 0 0 0 0 0 0 0 0 0 0 0 0 0 0 0 0 127 0" result="hardAlpha"/>
<feOffset dx="-6" dy="13"/>
<feGaussianBlur stdDeviation="9.2"/>
<feComposite in2="hardAlpha" operator="out"/>
<feColorMatrix type="matrix" values="0 0 0 0 0.145098 0 0 0 0 0.152941 0 0 0 0 0.454902 0 0 0 0.1 0"/>
<feBlend mode="normal" in2="BackgroundImageFix" result="effect1_dropShadow_925_9"/>
<feBlend mode="normal" in="SourceGraphic" in2="effect1_dropShadow_925_9" result="shape"/>
</filter>
</defs>
</svg>
