<svg width="604" height="604" viewBox="0 0 604 605" fill="none" xmlns="http://www.w3.org/2000/svg">
<rect y="0.5" width="604" height="604" rx="302" fill="#D3D4E3"/>
<path d="M82.458 289.644V272.844H85.002L92.37 285.108H91.002L98.25 272.844H100.794L100.842 289.644H97.866L97.842 277.476H98.466L92.322 287.724H90.93L84.69 277.476H85.41V289.644H82.458ZM112.983 289.644V287.052L112.815 286.5V281.964C112.815 281.084 112.551 280.404 112.023 279.924C111.495 279.428 110.695 279.18 109.623 279.18C108.903 279.18 108.191 279.292 107.487 279.516C106.799 279.74 106.215 280.052 105.735 280.452L104.559 278.268C105.247 277.74 106.063 277.348 107.007 277.092C107.967 276.82 108.959 276.684 109.983 276.684C111.839 276.684 113.271 277.132 114.279 278.028C115.303 278.908 115.815 280.276 115.815 282.132V289.644H112.983ZM108.951 289.812C107.991 289.812 107.151 289.652 106.431 289.332C105.711 288.996 105.151 288.54 104.751 287.964C104.367 287.372 104.175 286.708 104.175 285.972C104.175 285.252 104.343 284.604 104.679 284.028C105.031 283.452 105.599 282.996 106.383 282.66C107.167 282.324 108.207 282.156 109.503 282.156H113.223V284.148H109.719C108.695 284.148 108.007 284.316 107.655 284.652C107.303 284.972 107.127 285.372 107.127 285.852C107.127 286.396 107.343 286.828 107.775 287.148C108.207 287.468 108.807 287.628 109.575 287.628C110.311 287.628 110.967 287.46 111.543 287.124C112.135 286.788 112.559 286.292 112.815 285.636L113.319 287.436C113.031 288.188 112.511 288.772 111.759 289.188C111.023 289.604 110.087 289.812 108.951 289.812ZM128.144 287.1L127.496 287.82V276.828H130.496V287.82L129.776 287.1H136.112L135.416 287.82V276.828H138.416V289.644H119.528V276.828H122.528V287.82L121.832 287.1H128.144ZM142.45 289.644V276.828H145.45V285.276L152.53 276.828H155.266V289.644H152.266V281.196L145.21 289.644H142.45ZM159.301 289.644V276.828H162.301V282.036H168.757V276.828H171.757V289.644H168.757V284.58H162.301V289.644H159.301ZM183.554 289.644V287.052L183.386 286.5V281.964C183.386 281.084 183.122 280.404 182.594 279.924C182.066 279.428 181.266 279.18 180.194 279.18C179.474 279.18 178.762 279.292 178.058 279.516C177.37 279.74 176.786 280.052 176.306 280.452L175.13 278.268C175.818 277.74 176.634 277.348 177.578 277.092C178.538 276.82 179.53 276.684 180.554 276.684C182.41 276.684 183.842 277.132 184.85 278.028C185.874 278.908 186.386 280.276 186.386 282.132V289.644H183.554ZM179.522 289.812C178.562 289.812 177.722 289.652 177.002 289.332C176.282 288.996 175.722 288.54 175.322 287.964C174.938 287.372 174.746 286.708 174.746 285.972C174.746 285.252 174.914 284.604 175.25 284.028C175.602 283.452 176.17 282.996 176.954 282.66C177.738 282.324 178.778 282.156 180.074 282.156H183.794V284.148H180.29C179.266 284.148 178.578 284.316 178.226 284.652C177.874 284.972 177.698 285.372 177.698 285.852C177.698 286.396 177.914 286.828 178.346 287.148C178.778 287.468 179.378 287.628 180.146 287.628C180.882 287.628 181.538 287.46 182.114 287.124C182.706 286.788 183.13 286.292 183.386 285.636L183.89 287.436C183.602 288.188 183.082 288.772 182.33 289.188C181.594 289.604 180.658 289.812 179.522 289.812ZM205.515 288.252V279.372H200.595L200.523 281.436C200.491 282.172 200.443 282.884 200.379 283.572C200.315 284.244 200.211 284.868 200.067 285.444C199.923 286.004 199.715 286.468 199.443 286.836C199.171 287.204 198.811 287.444 198.363 287.556L195.387 287.1C195.867 287.1 196.251 286.948 196.539 286.644C196.843 286.324 197.075 285.892 197.235 285.348C197.411 284.788 197.539 284.156 197.619 283.452C197.699 282.732 197.755 281.988 197.787 281.22L197.955 276.828H208.515V288.252H205.515ZM194.931 292.5V287.1H210.411V292.5H207.603V289.644H197.715V292.5H194.931ZM211.218 289.62L211.362 287.1C211.474 287.116 211.578 287.132 211.674 287.148C211.77 287.164 211.858 287.172 211.938 287.172C212.434 287.172 212.818 287.02 213.09 286.716C213.362 286.412 213.562 286.004 213.69 285.492C213.834 284.964 213.93 284.38 213.978 283.74C214.042 283.084 214.09 282.428 214.122 281.772L214.338 276.828H224.706V289.644H221.706V278.556L222.402 279.372H216.306L216.954 278.532L216.786 281.916C216.738 283.052 216.642 284.108 216.498 285.084C216.37 286.044 216.162 286.884 215.874 287.604C215.602 288.324 215.218 288.884 214.722 289.284C214.242 289.684 213.626 289.884 212.874 289.884C212.634 289.884 212.37 289.86 212.082 289.812C211.81 289.764 211.522 289.7 211.218 289.62ZM236.882 289.644V285.276L237.314 285.78H233.474C231.714 285.78 230.33 285.412 229.322 284.676C228.33 283.924 227.834 282.844 227.834 281.436C227.834 279.932 228.362 278.788 229.418 278.004C230.49 277.22 231.914 276.828 233.69 276.828H239.57V289.644H236.882ZM227.666 289.644L231.122 284.748H234.194L230.882 289.644H227.666ZM236.882 284.316V278.556L237.314 279.348H233.786C232.858 279.348 232.138 279.524 231.626 279.876C231.13 280.212 230.882 280.764 230.882 281.532C230.882 282.972 231.818 283.692 233.69 283.692H237.314L236.882 284.316ZM250.239 289.644V276.828H253.239V282.036H259.695V276.828H262.695V289.644H259.695V284.58H253.239V289.644H250.239ZM274.491 289.644V287.052L274.323 286.5V281.964C274.323 281.084 274.059 280.404 273.531 279.924C273.003 279.428 272.203 279.18 271.131 279.18C270.411 279.18 269.699 279.292 268.995 279.516C268.307 279.74 267.723 280.052 267.243 280.452L266.067 278.268C266.755 277.74 267.571 277.348 268.515 277.092C269.475 276.82 270.467 276.684 271.491 276.684C273.347 276.684 274.779 277.132 275.787 278.028C276.811 278.908 277.323 280.276 277.323 282.132V289.644H274.491ZM270.459 289.812C269.499 289.812 268.659 289.652 267.939 289.332C267.219 288.996 266.659 288.54 266.259 287.964C265.875 287.372 265.683 286.708 265.683 285.972C265.683 285.252 265.851 284.604 266.187 284.028C266.539 283.452 267.107 282.996 267.891 282.66C268.675 282.324 269.715 282.156 271.011 282.156H274.731V284.148H271.227C270.203 284.148 269.515 284.316 269.163 284.652C268.811 284.972 268.635 285.372 268.635 285.852C268.635 286.396 268.851 286.828 269.283 287.148C269.715 287.468 270.315 287.628 271.083 287.628C271.819 287.628 272.475 287.46 273.051 287.124C273.643 286.788 274.067 286.292 274.323 285.636L274.827 287.436C274.539 288.188 274.019 288.772 273.267 289.188C272.531 289.604 271.595 289.812 270.459 289.812ZM281.036 289.644V276.828H284.036V282.036H290.492V276.828H293.492V289.644H290.492V284.58H284.036V289.644H281.036ZM303.488 289.812C302.064 289.812 300.816 289.532 299.744 288.972C298.688 288.396 297.864 287.612 297.272 286.62C296.696 285.628 296.408 284.5 296.408 283.236C296.408 281.956 296.688 280.828 297.248 279.852C297.824 278.86 298.608 278.084 299.6 277.524C300.608 276.964 301.752 276.684 303.032 276.684C304.28 276.684 305.392 276.956 306.368 277.5C307.344 278.044 308.112 278.812 308.672 279.804C309.232 280.796 309.512 281.964 309.512 283.308C309.512 283.436 309.504 283.58 309.488 283.74C309.488 283.9 309.48 284.052 309.464 284.196H298.784V282.204H307.88L306.704 282.828C306.72 282.092 306.568 281.444 306.248 280.884C305.928 280.324 305.488 279.884 304.928 279.564C304.384 279.244 303.752 279.084 303.032 279.084C302.296 279.084 301.648 279.244 301.088 279.564C300.544 279.884 300.112 280.332 299.792 280.908C299.488 281.468 299.336 282.132 299.336 282.9V283.38C299.336 284.148 299.512 284.828 299.864 285.42C300.216 286.012 300.712 286.468 301.352 286.788C301.992 287.108 302.728 287.268 303.56 287.268C304.28 287.268 304.928 287.156 305.504 286.932C306.08 286.708 306.592 286.356 307.04 285.876L308.648 287.724C308.072 288.396 307.344 288.916 306.464 289.284C305.6 289.636 304.608 289.812 303.488 289.812ZM318.625 289.812C317.281 289.812 316.081 289.532 315.025 288.972C313.985 288.396 313.169 287.612 312.577 286.62C311.985 285.628 311.689 284.5 311.689 283.236C311.689 281.956 311.985 280.828 312.577 279.852C313.169 278.86 313.985 278.084 315.025 277.524C316.081 276.964 317.281 276.684 318.625 276.684C319.873 276.684 320.969 276.94 321.913 277.452C322.873 277.948 323.601 278.684 324.097 279.66L321.793 281.004C321.409 280.396 320.937 279.948 320.377 279.66C319.833 279.372 319.241 279.228 318.601 279.228C317.865 279.228 317.201 279.388 316.609 279.708C316.017 280.028 315.553 280.492 315.217 281.1C314.881 281.692 314.713 282.404 314.713 283.236C314.713 284.068 314.881 284.788 315.217 285.396C315.553 285.988 316.017 286.444 316.609 286.764C317.201 287.084 317.865 287.244 318.601 287.244C319.241 287.244 319.833 287.1 320.377 286.812C320.937 286.524 321.409 286.076 321.793 285.468L324.097 286.812C323.601 287.772 322.873 288.516 321.913 289.044C320.969 289.556 319.873 289.812 318.625 289.812ZM332.527 289.812C331.103 289.812 329.855 289.532 328.783 288.972C327.727 288.396 326.903 287.612 326.311 286.62C325.735 285.628 325.447 284.5 325.447 283.236C325.447 281.956 325.727 280.828 326.287 279.852C326.863 278.86 327.647 278.084 328.639 277.524C329.647 276.964 330.791 276.684 332.071 276.684C333.319 276.684 334.431 276.956 335.407 277.5C336.383 278.044 337.151 278.812 337.711 279.804C338.271 280.796 338.551 281.964 338.551 283.308C338.551 283.436 338.543 283.58 338.527 283.74C338.527 283.9 338.519 284.052 338.503 284.196H327.823V282.204H336.919L335.743 282.828C335.759 282.092 335.607 281.444 335.287 280.884C334.967 280.324 334.527 279.884 333.967 279.564C333.423 279.244 332.791 279.084 332.071 279.084C331.335 279.084 330.687 279.244 330.127 279.564C329.583 279.884 329.151 280.332 328.831 280.908C328.527 281.468 328.375 282.132 328.375 282.9V283.38C328.375 284.148 328.551 284.828 328.903 285.42C329.255 286.012 329.751 286.468 330.391 286.788C331.031 287.108 331.767 287.268 332.599 287.268C333.319 287.268 333.967 287.156 334.543 286.932C335.119 286.708 335.631 286.356 336.079 285.876L337.687 287.724C337.111 288.396 336.383 288.916 335.503 289.284C334.639 289.636 333.647 289.812 332.527 289.812ZM341.832 289.644V276.828H344.832V282.036H351.288V276.828H354.288V289.644H351.288V284.58H344.832V289.644H341.832ZM358.309 289.644V276.828H361.309V285.276L368.389 276.828H371.125V289.644H368.125V281.196L361.069 289.644H358.309ZM383.297 289.644V285.276L383.729 285.78H379.889C378.129 285.78 376.745 285.412 375.737 284.676C374.745 283.924 374.249 282.844 374.249 281.436C374.249 279.932 374.777 278.788 375.833 278.004C376.905 277.22 378.329 276.828 380.105 276.828H385.985V289.644H383.297ZM374.081 289.644L377.537 284.748H380.609L377.297 289.644H374.081ZM383.297 284.316V278.556L383.729 279.348H380.201C379.273 279.348 378.553 279.524 378.041 279.876C377.545 280.212 377.297 280.764 377.297 281.532C377.297 282.972 378.233 283.692 380.105 283.692H383.729L383.297 284.316ZM396.653 289.644V276.828H408.941V289.644H405.965V278.676L406.661 279.372H398.957L399.653 278.676V289.644H396.653ZM418.701 289.812C417.389 289.812 416.221 289.532 415.197 288.972C414.173 288.396 413.365 287.612 412.773 286.62C412.181 285.628 411.885 284.5 411.885 283.236C411.885 281.956 412.181 280.828 412.773 279.852C413.365 278.86 414.173 278.084 415.197 277.524C416.221 276.964 417.389 276.684 418.701 276.684C420.029 276.684 421.205 276.964 422.229 277.524C423.269 278.084 424.077 278.852 424.653 279.828C425.245 280.804 425.541 281.94 425.541 283.236C425.541 284.5 425.245 285.628 424.653 286.62C424.077 287.612 423.269 288.396 422.229 288.972C421.205 289.532 420.029 289.812 418.701 289.812ZM418.701 287.244C419.437 287.244 420.093 287.084 420.669 286.764C421.245 286.444 421.693 285.98 422.013 285.372C422.349 284.764 422.517 284.052 422.517 283.236C422.517 282.404 422.349 281.692 422.013 281.1C421.693 280.492 421.245 280.028 420.669 279.708C420.093 279.388 419.445 279.228 418.725 279.228C417.989 279.228 417.333 279.388 416.757 279.708C416.197 280.028 415.749 280.492 415.413 281.1C415.077 281.692 414.909 282.404 414.909 283.236C414.909 284.052 415.077 284.764 415.413 285.372C415.749 285.98 416.197 286.444 416.757 286.764C417.333 287.084 417.981 287.244 418.701 287.244ZM437.696 289.644L433.064 283.5L435.512 281.988L441.224 289.644H437.696ZM428.504 289.644V276.828H431.504V289.644H428.504ZM430.616 284.508V282.012H434.96V284.508H430.616ZM435.8 283.596L432.992 283.26L437.696 276.828H440.912L435.8 283.596ZM450.444 289.812C449.404 289.812 448.452 289.572 447.588 289.092C446.74 288.612 446.06 287.892 445.548 286.932C445.052 285.956 444.804 284.724 444.804 283.236C444.804 281.732 445.044 280.5 445.524 279.54C446.02 278.58 446.692 277.868 447.54 277.404C448.388 276.924 449.356 276.684 450.444 276.684C451.708 276.684 452.82 276.956 453.78 277.5C454.756 278.044 455.524 278.804 456.084 279.78C456.66 280.756 456.948 281.908 456.948 283.236C456.948 284.564 456.66 285.724 456.084 286.716C455.524 287.692 454.756 288.452 453.78 288.996C452.82 289.54 451.708 289.812 450.444 289.812ZM443.34 294.3V276.828H446.196V279.852L446.1 283.26L446.34 286.668V294.3H443.34ZM450.108 287.244C450.828 287.244 451.468 287.084 452.028 286.764C452.604 286.444 453.06 285.98 453.396 285.372C453.732 284.764 453.9 284.052 453.9 283.236C453.9 282.404 453.732 281.692 453.396 281.1C453.06 280.492 452.604 280.028 452.028 279.708C451.468 279.388 450.828 279.228 450.108 279.228C449.388 279.228 448.74 279.388 448.164 279.708C447.588 280.028 447.132 280.492 446.796 281.1C446.46 281.692 446.292 282.404 446.292 283.236C446.292 284.052 446.46 284.764 446.796 285.372C447.132 285.98 447.588 286.444 448.164 286.764C448.74 287.084 449.388 287.244 450.108 287.244ZM472.87 289.644V276.828H475.87V289.644H472.87ZM466.174 281.052C467.822 281.052 469.07 281.42 469.918 282.156C470.782 282.892 471.214 283.932 471.214 285.276C471.214 286.668 470.734 287.756 469.774 288.54C468.83 289.308 467.486 289.684 465.742 289.668L459.934 289.644V276.828H462.934V281.028L466.174 281.052ZM465.478 287.46C466.358 287.476 467.03 287.292 467.494 286.908C467.958 286.524 468.19 285.964 468.19 285.228C468.19 284.492 467.958 283.964 467.494 283.644C467.046 283.308 466.374 283.132 465.478 283.116L462.934 283.092V287.436L465.478 287.46ZM482.567 289.644V278.652L483.263 279.372H478.055V276.828H490.055V279.372H484.871L485.567 278.652V289.644H482.567ZM492.231 289.644V276.828H495.231V285.276L502.311 276.828H505.047V289.644H502.047V281.196L494.991 289.644H492.231ZM509.082 289.644V276.828H512.082V285.276L519.162 276.828H521.898V289.644H518.898V281.196L511.842 289.644H509.082ZM515.298 275.316C514.018 275.316 513.034 275.02 512.346 274.428C511.658 273.82 511.306 272.94 511.29 271.788H513.282C513.298 272.364 513.474 272.82 513.81 273.156C514.162 273.492 514.65 273.66 515.274 273.66C515.882 273.66 516.362 273.492 516.714 273.156C517.082 272.82 517.274 272.364 517.29 271.788H519.33C519.314 272.94 518.954 273.82 518.25 274.428C517.562 275.02 516.578 275.316 515.298 275.316ZM116.2 318.644V305.828H128.488V318.644H125.512V307.676L126.208 308.372H118.504L119.2 307.676V318.644H116.2ZM138.248 318.812C136.936 318.812 135.768 318.532 134.744 317.972C133.72 317.396 132.912 316.612 132.32 315.62C131.728 314.628 131.432 313.5 131.432 312.236C131.432 310.956 131.728 309.828 132.32 308.852C132.912 307.86 133.72 307.084 134.744 306.524C135.768 305.964 136.936 305.684 138.248 305.684C139.576 305.684 140.752 305.964 141.776 306.524C142.816 307.084 143.624 307.852 144.2 308.828C144.792 309.804 145.088 310.94 145.088 312.236C145.088 313.5 144.792 314.628 144.2 315.62C143.624 316.612 142.816 317.396 141.776 317.972C140.752 318.532 139.576 318.812 138.248 318.812ZM138.248 316.244C138.984 316.244 139.64 316.084 140.216 315.764C140.792 315.444 141.24 314.98 141.56 314.372C141.896 313.764 142.064 313.052 142.064 312.236C142.064 311.404 141.896 310.692 141.56 310.1C141.24 309.492 140.792 309.028 140.216 308.708C139.64 308.388 138.992 308.228 138.272 308.228C137.536 308.228 136.88 308.388 136.304 308.708C135.744 309.028 135.296 309.492 134.96 310.1C134.624 310.692 134.456 311.404 134.456 312.236C134.456 313.052 134.624 313.764 134.96 314.372C135.296 314.98 135.744 315.444 136.304 315.764C136.88 316.084 137.528 316.244 138.248 316.244ZM148.051 318.644V305.828H157.891V308.372H150.355L151.051 307.7V318.644H148.051ZM167.179 318.812C166.139 318.812 165.187 318.572 164.323 318.092C163.475 317.612 162.795 316.892 162.283 315.932C161.787 314.956 161.539 313.724 161.539 312.236C161.539 310.732 161.779 309.5 162.259 308.54C162.755 307.58 163.427 306.868 164.275 306.404C165.123 305.924 166.091 305.684 167.179 305.684C168.443 305.684 169.555 305.956 170.515 306.5C171.491 307.044 172.259 307.804 172.819 308.78C173.395 309.756 173.683 310.908 173.683 312.236C173.683 313.564 173.395 314.724 172.819 315.716C172.259 316.692 171.491 317.452 170.515 317.996C169.555 318.54 168.443 318.812 167.179 318.812ZM160.075 323.3V305.828H162.931V308.852L162.835 312.26L163.075 315.668V323.3H160.075ZM166.843 316.244C167.563 316.244 168.203 316.084 168.763 315.764C169.339 315.444 169.795 314.98 170.131 314.372C170.467 313.764 170.635 313.052 170.635 312.236C170.635 311.404 170.467 310.692 170.131 310.1C169.795 309.492 169.339 309.028 168.763 308.708C168.203 308.388 167.563 308.228 166.843 308.228C166.123 308.228 165.475 308.388 164.899 308.708C164.323 309.028 163.867 309.492 163.531 310.1C163.195 310.692 163.027 311.404 163.027 312.236C163.027 313.052 163.195 313.764 163.531 314.372C163.867 314.98 164.323 315.444 164.899 315.764C165.475 316.084 166.123 316.244 166.843 316.244ZM177.469 323.468C176.845 323.468 176.221 323.364 175.597 323.156C174.973 322.948 174.453 322.66 174.037 322.292L175.237 320.084C175.541 320.356 175.885 320.572 176.269 320.732C176.653 320.892 177.045 320.972 177.445 320.972C177.989 320.972 178.429 320.836 178.765 320.564C179.101 320.292 179.413 319.836 179.701 319.196L180.445 317.516L180.685 317.156L185.533 305.828H188.413L182.413 319.676C182.013 320.636 181.565 321.396 181.069 321.956C180.589 322.516 180.045 322.908 179.437 323.132C178.845 323.356 178.189 323.468 177.469 323.468ZM180.109 319.1L174.325 305.828H177.445L182.149 316.892L180.109 319.1ZM205.058 318.644L201.314 312.5L203.762 310.988L208.634 318.644H205.058ZM198.89 313.508V311.012H203.186V313.508H198.89ZM204.05 312.596L201.218 312.26L205.106 305.828H208.298L204.05 312.596ZM191.522 318.644H187.97L192.818 310.988L195.266 312.5L191.522 318.644ZM199.778 318.644H196.802V305.828H199.778V318.644ZM197.69 313.508H193.418V311.012H197.69V313.508ZM192.53 312.596L188.282 305.828H191.474L195.338 312.26L192.53 312.596ZM216.418 318.812C214.994 318.812 213.746 318.532 212.674 317.972C211.618 317.396 210.794 316.612 210.202 315.62C209.626 314.628 209.338 313.5 209.338 312.236C209.338 310.956 209.618 309.828 210.178 308.852C210.754 307.86 211.538 307.084 212.53 306.524C213.538 305.964 214.682 305.684 215.962 305.684C217.21 305.684 218.322 305.956 219.298 306.5C220.274 307.044 221.042 307.812 221.602 308.804C222.162 309.796 222.442 310.964 222.442 312.308C222.442 312.436 222.434 312.58 222.418 312.74C222.418 312.9 222.41 313.052 222.394 313.196H211.714V311.204H220.81L219.634 311.828C219.65 311.092 219.498 310.444 219.178 309.884C218.858 309.324 218.418 308.884 217.858 308.564C217.314 308.244 216.682 308.084 215.962 308.084C215.226 308.084 214.578 308.244 214.018 308.564C213.474 308.884 213.042 309.332 212.722 309.908C212.418 310.468 212.266 311.132 212.266 311.9V312.38C212.266 313.148 212.442 313.828 212.794 314.42C213.146 315.012 213.642 315.468 214.282 315.788C214.922 316.108 215.658 316.268 216.49 316.268C217.21 316.268 217.858 316.156 218.434 315.932C219.01 315.708 219.522 315.356 219.97 314.876L221.578 316.724C221.002 317.396 220.274 317.916 219.394 318.284C218.53 318.636 217.538 318.812 216.418 318.812ZM225.723 318.644V305.828H228.723V311.036H235.179V305.828H238.179V318.644H235.179V313.58H228.723V318.644H225.723ZM242.2 318.644V305.828H245.2V314.276L252.28 305.828H255.016V318.644H252.016V310.196L244.96 318.644H242.2ZM265.027 318.812C263.603 318.812 262.355 318.532 261.283 317.972C260.227 317.396 259.403 316.612 258.811 315.62C258.235 314.628 257.947 313.5 257.947 312.236C257.947 310.956 258.227 309.828 258.787 308.852C259.363 307.86 260.147 307.084 261.139 306.524C262.147 305.964 263.291 305.684 264.571 305.684C265.819 305.684 266.931 305.956 267.907 306.5C268.883 307.044 269.651 307.812 270.211 308.804C270.771 309.796 271.051 310.964 271.051 312.308C271.051 312.436 271.043 312.58 271.027 312.74C271.027 312.9 271.019 313.052 271.003 313.196H260.323V311.204H269.419L268.243 311.828C268.259 311.092 268.107 310.444 267.787 309.884C267.467 309.324 267.027 308.884 266.467 308.564C265.923 308.244 265.291 308.084 264.571 308.084C263.835 308.084 263.187 308.244 262.627 308.564C262.083 308.884 261.651 309.332 261.331 309.908C261.027 310.468 260.875 311.132 260.875 311.9V312.38C260.875 313.148 261.051 313.828 261.403 314.42C261.755 315.012 262.251 315.468 262.891 315.788C263.531 316.108 264.267 316.268 265.099 316.268C265.819 316.268 266.467 316.156 267.043 315.932C267.619 315.708 268.131 315.356 268.579 314.876L270.187 316.724C269.611 317.396 268.883 317.916 268.003 318.284C267.139 318.636 266.147 318.812 265.027 318.812ZM274.332 318.644V305.828H277.476L282.636 314.924H281.388L286.812 305.828H289.62L289.644 318.644H286.932V309.044L287.412 309.356L282.612 317.3H281.316L276.492 309.14L277.068 308.996V318.644H274.332ZM300.301 318.644V305.828H306.565C308.117 305.828 309.333 306.116 310.213 306.692C311.109 307.268 311.557 308.084 311.557 309.14C311.557 310.18 311.141 310.996 310.309 311.588C309.477 312.164 308.373 312.452 306.997 312.452L307.357 311.708C308.909 311.708 310.061 311.996 310.813 312.572C311.581 313.132 311.965 313.956 311.965 315.044C311.965 316.18 311.541 317.068 310.693 317.708C309.845 318.332 308.557 318.644 306.829 318.644H300.301ZM303.157 316.46H306.589C307.405 316.46 308.021 316.332 308.437 316.076C308.853 315.804 309.061 315.396 309.061 314.852C309.061 314.276 308.869 313.852 308.485 313.58C308.101 313.308 307.501 313.172 306.685 313.172H303.157V316.46ZM303.157 311.18H306.301C307.069 311.18 307.645 311.044 308.029 310.772C308.429 310.484 308.629 310.084 308.629 309.572C308.629 309.044 308.429 308.652 308.029 308.396C307.645 308.14 307.069 308.012 306.301 308.012H303.157V311.18ZM321.793 318.644V305.828H324.793V316.1H330.913V305.828H333.913V318.644H321.793ZM333.049 321.5V318.572L333.745 318.644H330.913V316.1H335.857V321.5H333.049ZM344.504 318.812C343.08 318.812 341.832 318.532 340.76 317.972C339.704 317.396 338.88 316.612 338.288 315.62C337.712 314.628 337.424 313.5 337.424 312.236C337.424 310.956 337.704 309.828 338.264 308.852C338.84 307.86 339.624 307.084 340.616 306.524C341.624 305.964 342.768 305.684 344.048 305.684C345.296 305.684 346.408 305.956 347.384 306.5C348.36 307.044 349.128 307.812 349.688 308.804C350.248 309.796 350.528 310.964 350.528 312.308C350.528 312.436 350.52 312.58 350.504 312.74C350.504 312.9 350.496 313.052 350.48 313.196H339.8V311.204H348.896L347.72 311.828C347.736 311.092 347.584 310.444 347.264 309.884C346.944 309.324 346.504 308.884 345.944 308.564C345.4 308.244 344.768 308.084 344.048 308.084C343.312 308.084 342.664 308.244 342.104 308.564C341.56 308.884 341.128 309.332 340.808 309.908C340.504 310.468 340.352 311.132 340.352 311.9V312.38C340.352 313.148 340.528 313.828 340.88 314.42C341.232 315.012 341.728 315.468 342.368 315.788C343.008 316.108 343.744 316.268 344.576 316.268C345.296 316.268 345.944 316.156 346.52 315.932C347.096 315.708 347.608 315.356 348.056 314.876L349.664 316.724C349.088 317.396 348.36 317.916 347.48 318.284C346.616 318.636 345.624 318.812 344.504 318.812ZM353.809 318.644V305.828H356.809V311.036H363.265V305.828H366.265V318.644H363.265V313.58H356.809V318.644H353.809ZM372.95 318.644V307.652L373.646 308.372H368.438V305.828H380.438V308.372H375.254L375.95 307.652V318.644H372.95ZM389.718 318.812C388.678 318.812 387.726 318.572 386.862 318.092C386.014 317.612 385.334 316.892 384.822 315.932C384.326 314.956 384.078 313.724 384.078 312.236C384.078 310.732 384.318 309.5 384.798 308.54C385.294 307.58 385.966 306.868 386.814 306.404C387.662 305.924 388.63 305.684 389.718 305.684C390.982 305.684 392.094 305.956 393.054 306.5C394.03 307.044 394.798 307.804 395.358 308.78C395.934 309.756 396.222 310.908 396.222 312.236C396.222 313.564 395.934 314.724 395.358 315.716C394.798 316.692 394.03 317.452 393.054 317.996C392.094 318.54 390.982 318.812 389.718 318.812ZM382.614 323.3V305.828H385.47V308.852L385.374 312.26L385.614 315.668V323.3H382.614ZM389.382 316.244C390.102 316.244 390.742 316.084 391.302 315.764C391.878 315.444 392.334 314.98 392.67 314.372C393.006 313.764 393.174 313.052 393.174 312.236C393.174 311.404 393.006 310.692 392.67 310.1C392.334 309.492 391.878 309.028 391.302 308.708C390.742 308.388 390.102 308.228 389.382 308.228C388.662 308.228 388.014 308.388 387.438 308.708C386.862 309.028 386.406 309.492 386.07 310.1C385.734 310.692 385.566 311.404 385.566 312.236C385.566 313.052 385.734 313.764 386.07 314.372C386.406 314.98 386.862 315.444 387.438 315.764C388.014 316.084 388.662 316.244 389.382 316.244ZM399.207 318.644V305.828H402.207V314.276L409.287 305.828H412.023V318.644H409.023V310.196L401.967 318.644H399.207ZM424.195 318.884C424.179 318.884 424.107 318.884 423.979 318.884C423.867 318.884 423.755 318.884 423.643 318.884C423.547 318.884 423.483 318.884 423.451 318.884C420.747 318.852 418.651 318.268 417.163 317.132C415.675 315.98 414.931 314.34 414.931 312.212C414.931 310.1 415.675 308.484 417.163 307.364C418.651 306.244 420.771 305.668 423.523 305.636C423.555 305.636 423.619 305.636 423.715 305.636C423.827 305.636 423.931 305.636 424.027 305.636C424.139 305.636 424.203 305.636 424.219 305.636C426.987 305.636 429.139 306.204 430.675 307.34C432.227 308.46 433.003 310.084 433.003 312.212C433.003 314.356 432.227 316.004 430.675 317.156C429.139 318.308 426.979 318.884 424.195 318.884ZM424.099 316.388C425.459 316.388 426.579 316.236 427.459 315.932C428.339 315.612 428.995 315.148 429.427 314.54C429.859 313.916 430.075 313.14 430.075 312.212C430.075 311.3 429.859 310.548 429.427 309.956C428.995 309.348 428.339 308.9 427.459 308.612C426.579 308.308 425.459 308.156 424.099 308.156C424.067 308.156 423.987 308.156 423.859 308.156C423.747 308.156 423.675 308.156 423.643 308.156C422.315 308.156 421.227 308.316 420.379 308.636C419.531 308.94 418.899 309.388 418.483 309.98C418.083 310.572 417.883 311.316 417.883 312.212C417.883 313.124 418.083 313.884 418.483 314.492C418.899 315.1 419.531 315.564 420.379 315.884C421.243 316.204 422.331 316.372 423.643 316.388C423.675 316.388 423.747 316.388 423.859 316.388C423.987 316.388 424.067 316.388 424.099 316.388ZM422.539 323.3V300.836H425.371V323.3H422.539ZM436.711 323.468C436.087 323.468 435.463 323.364 434.839 323.156C434.215 322.948 433.695 322.66 433.279 322.292L434.479 320.084C434.783 320.356 435.127 320.572 435.511 320.732C435.895 320.892 436.287 320.972 436.687 320.972C437.231 320.972 437.671 320.836 438.007 320.564C438.343 320.292 438.655 319.836 438.943 319.196L439.687 317.516L439.927 317.156L444.775 305.828H447.655L441.655 319.676C441.255 320.636 440.807 321.396 440.311 321.956C439.831 322.516 439.287 322.908 438.679 323.132C438.087 323.356 437.431 323.468 436.711 323.468ZM439.351 319.1L433.567 305.828H436.687L441.391 316.892L439.351 319.1ZM449.739 318.644V305.828H459.579V308.372H452.043L452.739 307.7V318.644H449.739ZM462.938 323.468C462.314 323.468 461.69 323.364 461.066 323.156C460.442 322.948 459.922 322.66 459.506 322.292L460.706 320.084C461.01 320.356 461.354 320.572 461.738 320.732C462.122 320.892 462.514 320.972 462.914 320.972C463.458 320.972 463.898 320.836 464.234 320.564C464.57 320.292 464.882 319.836 465.17 319.196L465.914 317.516L466.154 317.156L471.002 305.828H473.882L467.882 319.676C467.482 320.636 467.034 321.396 466.538 321.956C466.058 322.516 465.514 322.908 464.906 323.132C464.314 323.356 463.658 323.468 462.938 323.468ZM465.578 319.1L459.794 305.828H462.914L467.618 316.892L465.578 319.1ZM481.902 313.22V310.724H488.502V313.22H481.902ZM200.173 347.644V330.844H202.717L210.085 343.108H208.717L215.965 330.844H218.509L218.557 347.644H215.581L215.557 335.476H216.181L210.037 345.724H208.645L202.405 335.476H203.125V347.644H200.173ZM228.634 347.812C227.322 347.812 226.154 347.532 225.13 346.972C224.106 346.396 223.298 345.612 222.706 344.62C222.114 343.628 221.818 342.5 221.818 341.236C221.818 339.956 222.114 338.828 222.706 337.852C223.298 336.86 224.106 336.084 225.13 335.524C226.154 334.964 227.322 334.684 228.634 334.684C229.962 334.684 231.138 334.964 232.162 335.524C233.202 336.084 234.01 336.852 234.586 337.828C235.178 338.804 235.474 339.94 235.474 341.236C235.474 342.5 235.178 343.628 234.586 344.62C234.01 345.612 233.202 346.396 232.162 346.972C231.138 347.532 229.962 347.812 228.634 347.812ZM228.634 345.244C229.37 345.244 230.026 345.084 230.602 344.764C231.178 344.444 231.626 343.98 231.946 343.372C232.282 342.764 232.45 342.052 232.45 341.236C232.45 340.404 232.282 339.692 231.946 339.1C231.626 338.492 231.178 338.028 230.602 337.708C230.026 337.388 229.378 337.228 228.658 337.228C227.922 337.228 227.266 337.388 226.69 337.708C226.13 338.028 225.682 338.492 225.346 339.1C225.01 339.692 224.842 340.404 224.842 341.236C224.842 342.052 225.01 342.764 225.346 343.372C225.682 343.98 226.13 344.444 226.69 344.764C227.266 345.084 227.914 345.244 228.634 345.244ZM247.081 346.252V337.372H242.161L242.089 339.436C242.057 340.172 242.009 340.884 241.945 341.572C241.881 342.244 241.777 342.868 241.633 343.444C241.489 344.004 241.281 344.468 241.009 344.836C240.737 345.204 240.377 345.444 239.929 345.556L236.953 345.1C237.433 345.1 237.817 344.948 238.105 344.644C238.409 344.324 238.641 343.892 238.801 343.348C238.977 342.788 239.105 342.156 239.185 341.452C239.265 340.732 239.321 339.988 239.353 339.22L239.521 334.828H250.081V346.252H247.081ZM236.497 350.5V345.1H251.977V350.5H249.169V347.644H239.281V350.5H236.497ZM260.633 347.812C259.209 347.812 257.961 347.532 256.889 346.972C255.833 346.396 255.009 345.612 254.417 344.62C253.841 343.628 253.553 342.5 253.553 341.236C253.553 339.956 253.833 338.828 254.393 337.852C254.969 336.86 255.753 336.084 256.745 335.524C257.753 334.964 258.897 334.684 260.177 334.684C261.425 334.684 262.537 334.956 263.513 335.5C264.489 336.044 265.257 336.812 265.817 337.804C266.377 338.796 266.657 339.964 266.657 341.308C266.657 341.436 266.649 341.58 266.633 341.74C266.633 341.9 266.625 342.052 266.609 342.196H255.929V340.204H265.025L263.849 340.828C263.865 340.092 263.713 339.444 263.393 338.884C263.073 338.324 262.633 337.884 262.073 337.564C261.529 337.244 260.897 337.084 260.177 337.084C259.441 337.084 258.793 337.244 258.233 337.564C257.689 337.884 257.257 338.332 256.937 338.908C256.633 339.468 256.481 340.132 256.481 340.9V341.38C256.481 342.148 256.657 342.828 257.009 343.42C257.361 344.012 257.857 344.468 258.497 344.788C259.137 345.108 259.873 345.268 260.705 345.268C261.425 345.268 262.073 345.156 262.649 344.932C263.225 344.708 263.737 344.356 264.185 343.876L265.793 345.724C265.217 346.396 264.489 346.916 263.609 347.284C262.745 347.636 261.753 347.812 260.633 347.812ZM267.902 347.62L268.046 345.1C268.158 345.116 268.262 345.132 268.358 345.148C268.454 345.164 268.542 345.172 268.622 345.172C269.118 345.172 269.502 345.02 269.774 344.716C270.046 344.412 270.246 344.004 270.374 343.492C270.518 342.964 270.614 342.38 270.662 341.74C270.726 341.084 270.774 340.428 270.806 339.772L271.022 334.828H281.39V347.644H278.39V336.556L279.086 337.372H272.99L273.638 336.532L273.47 339.916C273.422 341.052 273.326 342.108 273.182 343.084C273.054 344.044 272.846 344.884 272.558 345.604C272.286 346.324 271.902 346.884 271.406 347.284C270.926 347.684 270.31 347.884 269.558 347.884C269.318 347.884 269.054 347.86 268.766 347.812C268.494 347.764 268.206 347.7 267.902 347.62ZM291.862 339.052C293.51 339.052 294.766 339.42 295.63 340.156C296.494 340.892 296.926 341.932 296.926 343.276C296.926 344.668 296.446 345.756 295.486 346.54C294.526 347.308 293.174 347.684 291.43 347.668L285.43 347.644V334.828H288.43V339.028L291.862 339.052ZM291.166 345.46C292.046 345.476 292.718 345.292 293.182 344.908C293.646 344.524 293.878 343.964 293.878 343.228C293.878 342.492 293.646 341.964 293.182 341.644C292.734 341.308 292.062 341.132 291.166 341.116L288.43 341.092V345.436L291.166 345.46ZM306.436 347.644V330.844H313.78C315.604 330.844 317.204 331.196 318.58 331.9C319.956 332.604 321.028 333.58 321.796 334.828C322.564 336.076 322.948 337.548 322.948 339.244C322.948 340.924 322.564 342.396 321.796 343.66C321.028 344.908 319.956 345.884 318.58 346.588C317.204 347.292 315.604 347.644 313.78 347.644H306.436ZM309.556 345.004H313.636C314.9 345.004 315.988 344.764 316.9 344.284C317.828 343.804 318.54 343.132 319.036 342.268C319.548 341.404 319.804 340.396 319.804 339.244C319.804 338.076 319.548 337.068 319.036 336.22C318.54 335.356 317.828 334.684 316.9 334.204C315.988 333.724 314.9 333.484 313.636 333.484H309.556V345.004ZM331.472 347.884C330.16 347.884 328.904 347.7 327.704 347.332C326.504 346.948 325.552 346.46 324.848 345.868L325.928 343.444C326.6 343.972 327.432 344.412 328.424 344.764C329.416 345.116 330.432 345.292 331.472 345.292C332.352 345.292 333.064 345.196 333.608 345.004C334.152 344.812 334.552 344.556 334.808 344.236C335.064 343.9 335.192 343.524 335.192 343.108C335.192 342.596 335.008 342.188 334.64 341.884C334.272 341.564 333.792 341.316 333.2 341.14C332.624 340.948 331.976 340.772 331.256 340.612C330.552 340.452 329.84 340.268 329.12 340.06C328.416 339.836 327.768 339.556 327.176 339.22C326.6 338.868 326.128 338.404 325.76 337.828C325.392 337.252 325.208 336.516 325.208 335.62C325.208 334.708 325.448 333.876 325.928 333.124C326.424 332.356 327.168 331.748 328.16 331.3C329.168 330.836 330.44 330.604 331.976 330.604C332.984 330.604 333.984 330.732 334.976 330.988C335.968 331.244 336.832 331.612 337.568 332.092L336.584 334.516C335.832 334.068 335.056 333.74 334.256 333.532C333.456 333.308 332.688 333.196 331.952 333.196C331.088 333.196 330.384 333.3 329.84 333.508C329.312 333.716 328.92 333.988 328.664 334.324C328.424 334.66 328.304 335.044 328.304 335.476C328.304 335.988 328.48 336.404 328.832 336.724C329.2 337.028 329.672 337.268 330.248 337.444C330.84 337.62 331.496 337.796 332.216 337.972C332.936 338.132 333.648 338.316 334.352 338.524C335.072 338.732 335.72 339.004 336.296 339.34C336.888 339.676 337.36 340.132 337.712 340.708C338.08 341.284 338.264 342.012 338.264 342.892C338.264 343.788 338.016 344.62 337.52 345.388C337.04 346.14 336.296 346.748 335.288 347.212C334.28 347.66 333.008 347.884 331.472 347.884ZM344.531 347.644V333.484H338.963V330.844H353.219V333.484H347.651V347.644H344.531ZM366.273 347.884C365.09 347.884 363.93 347.716 362.794 347.38C361.674 347.028 360.73 346.548 359.962 345.94L361.306 343.516C361.914 344.012 362.65 344.412 363.514 344.716C364.378 345.02 365.282 345.172 366.226 345.172C367.346 345.172 368.218 344.948 368.842 344.5C369.466 344.036 369.778 343.412 369.778 342.628C369.778 341.86 369.49 341.252 368.914 340.804C368.338 340.356 367.41 340.132 366.13 340.132H364.594V337.996L369.394 332.284L369.802 333.46H360.778V330.844H372.226V332.932L367.426 338.644L365.794 337.684H366.73C368.794 337.684 370.338 338.148 371.362 339.076C372.402 339.988 372.922 341.164 372.922 342.604C372.922 343.548 372.682 344.42 372.202 345.22C371.722 346.02 370.986 346.668 369.994 347.164C369.018 347.644 367.778 347.884 366.273 347.884ZM381.97 347.884C380.642 347.884 379.442 347.548 378.37 346.876C377.314 346.204 376.482 345.228 375.874 343.948C375.266 342.652 374.962 341.084 374.962 339.244C374.962 337.404 375.266 335.844 375.874 334.564C376.482 333.268 377.314 332.284 378.37 331.612C379.442 330.94 380.642 330.604 381.97 330.604C383.314 330.604 384.514 330.94 385.57 331.612C386.626 332.284 387.458 333.268 388.066 334.564C388.69 335.844 389.002 337.404 389.002 339.244C389.002 341.084 388.69 342.652 388.066 343.948C387.458 345.228 386.626 346.204 385.57 346.876C384.514 347.548 383.314 347.884 381.97 347.884ZM381.97 345.172C382.754 345.172 383.434 344.964 384.01 344.548C384.586 344.116 385.034 343.46 385.354 342.58C385.69 341.7 385.858 340.588 385.858 339.244C385.858 337.884 385.69 336.772 385.354 335.908C385.034 335.028 384.586 334.38 384.01 333.964C383.434 333.532 382.754 333.316 381.97 333.316C381.218 333.316 380.546 333.532 379.954 333.964C379.378 334.38 378.922 335.028 378.586 335.908C378.266 336.772 378.106 337.884 378.106 339.244C378.106 340.588 378.266 341.7 378.586 342.58C378.922 343.46 379.378 344.116 379.954 344.548C380.546 344.964 381.218 345.172 381.97 345.172ZM398.119 347.884C396.791 347.884 395.591 347.548 394.519 346.876C393.463 346.204 392.631 345.228 392.023 343.948C391.415 342.652 391.111 341.084 391.111 339.244C391.111 337.404 391.415 335.844 392.023 334.564C392.631 333.268 393.463 332.284 394.519 331.612C395.591 330.94 396.791 330.604 398.119 330.604C399.463 330.604 400.663 330.94 401.719 331.612C402.775 332.284 403.607 333.268 404.215 334.564C404.839 335.844 405.151 337.404 405.151 339.244C405.151 341.084 404.839 342.652 404.215 343.948C403.607 345.228 402.775 346.204 401.719 346.876C400.663 347.548 399.463 347.884 398.119 347.884ZM398.119 345.172C398.903 345.172 399.583 344.964 400.159 344.548C400.735 344.116 401.183 343.46 401.503 342.58C401.839 341.7 402.007 340.588 402.007 339.244C402.007 337.884 401.839 336.772 401.503 335.908C401.183 335.028 400.735 334.38 400.159 333.964C399.583 333.532 398.903 333.316 398.119 333.316C397.367 333.316 396.695 333.532 396.103 333.964C395.527 334.38 395.071 335.028 394.735 335.908C394.415 336.772 394.255 337.884 394.255 339.244C394.255 340.588 394.415 341.7 394.735 342.58C395.071 343.46 395.527 344.116 396.103 344.548C396.695 344.964 397.367 345.172 398.119 345.172Z" fill="white"/>
<path d="M231.122 478.644V461.844H245.978V478.644H242.906V463.716L243.626 464.484H233.474L234.194 463.716V478.644H231.122ZM256.091 478.812C254.779 478.812 253.611 478.532 252.587 477.972C251.563 477.396 250.755 476.612 250.163 475.62C249.571 474.628 249.275 473.5 249.275 472.236C249.275 470.956 249.571 469.828 250.163 468.852C250.755 467.86 251.563 467.084 252.587 466.524C253.611 465.964 254.779 465.684 256.091 465.684C257.419 465.684 258.595 465.964 259.619 466.524C260.659 467.084 261.467 467.852 262.043 468.828C262.635 469.804 262.931 470.94 262.931 472.236C262.931 473.5 262.635 474.628 262.043 475.62C261.467 476.612 260.659 477.396 259.619 477.972C258.595 478.532 257.419 478.812 256.091 478.812ZM256.091 476.244C256.827 476.244 257.483 476.084 258.059 475.764C258.635 475.444 259.083 474.98 259.403 474.372C259.739 473.764 259.907 473.052 259.907 472.236C259.907 471.404 259.739 470.692 259.403 470.1C259.083 469.492 258.635 469.028 258.059 468.708C257.483 468.388 256.835 468.228 256.115 468.228C255.379 468.228 254.723 468.388 254.147 468.708C253.587 469.028 253.139 469.492 252.803 470.1C252.467 470.692 252.299 471.404 252.299 472.236C252.299 473.052 252.467 473.764 252.803 474.372C253.139 474.98 253.587 475.444 254.147 475.764C254.723 476.084 255.371 476.244 256.091 476.244ZM274.538 477.252V468.372H269.618L269.546 470.436C269.514 471.172 269.466 471.884 269.402 472.572C269.338 473.244 269.234 473.868 269.09 474.444C268.946 475.004 268.738 475.468 268.466 475.836C268.194 476.204 267.834 476.444 267.386 476.556L264.41 476.1C264.89 476.1 265.274 475.948 265.562 475.644C265.866 475.324 266.098 474.892 266.258 474.348C266.434 473.788 266.562 473.156 266.642 472.452C266.722 471.732 266.778 470.988 266.81 470.22L266.978 465.828H277.538V477.252H274.538ZM263.954 481.5V476.1H279.434V481.5H276.626V478.644H266.738V481.5H263.954ZM289.218 478.812C288.178 478.812 287.226 478.572 286.362 478.092C285.514 477.612 284.834 476.892 284.322 475.932C283.826 474.956 283.578 473.724 283.578 472.236C283.578 470.732 283.818 469.5 284.298 468.54C284.794 467.58 285.466 466.868 286.314 466.404C287.162 465.924 288.13 465.684 289.218 465.684C290.482 465.684 291.594 465.956 292.554 466.5C293.53 467.044 294.298 467.804 294.858 468.78C295.434 469.756 295.722 470.908 295.722 472.236C295.722 473.564 295.434 474.724 294.858 475.716C294.298 476.692 293.53 477.452 292.554 477.996C291.594 478.54 290.482 478.812 289.218 478.812ZM282.114 483.3V465.828H284.97V468.852L284.874 472.26L285.114 475.668V483.3H282.114ZM288.882 476.244C289.602 476.244 290.242 476.084 290.802 475.764C291.378 475.444 291.834 474.98 292.17 474.372C292.506 473.764 292.674 473.052 292.674 472.236C292.674 471.404 292.506 470.692 292.17 470.1C291.834 469.492 291.378 469.028 290.802 468.708C290.242 468.388 289.602 468.228 288.882 468.228C288.162 468.228 287.514 468.388 286.938 468.708C286.362 469.028 285.906 469.492 285.57 470.1C285.234 470.692 285.066 471.404 285.066 472.236C285.066 473.052 285.234 473.764 285.57 474.372C285.906 474.98 286.362 475.444 286.938 475.764C287.514 476.084 288.162 476.244 288.882 476.244ZM304.419 478.812C303.107 478.812 301.939 478.532 300.915 477.972C299.891 477.396 299.083 476.612 298.491 475.62C297.899 474.628 297.603 473.5 297.603 472.236C297.603 470.956 297.899 469.828 298.491 468.852C299.083 467.86 299.891 467.084 300.915 466.524C301.939 465.964 303.107 465.684 304.419 465.684C305.747 465.684 306.923 465.964 307.947 466.524C308.987 467.084 309.795 467.852 310.371 468.828C310.963 469.804 311.259 470.94 311.259 472.236C311.259 473.5 310.963 474.628 310.371 475.62C309.795 476.612 308.987 477.396 307.947 477.972C306.923 478.532 305.747 478.812 304.419 478.812ZM304.419 476.244C305.155 476.244 305.811 476.084 306.387 475.764C306.963 475.444 307.411 474.98 307.731 474.372C308.067 473.764 308.235 473.052 308.235 472.236C308.235 471.404 308.067 470.692 307.731 470.1C307.411 469.492 306.963 469.028 306.387 468.708C305.811 468.388 305.163 468.228 304.443 468.228C303.707 468.228 303.051 468.388 302.475 468.708C301.915 469.028 301.467 469.492 301.131 470.1C300.795 470.692 300.627 471.404 300.627 472.236C300.627 473.052 300.795 473.764 301.131 474.372C301.467 474.98 301.915 475.444 302.475 475.764C303.051 476.084 303.699 476.244 304.419 476.244ZM320.343 478.884C319.287 478.884 318.343 478.724 317.511 478.404C316.679 478.084 315.959 477.596 315.351 476.94C314.759 476.268 314.303 475.42 313.983 474.396C313.663 473.372 313.503 472.156 313.503 470.748C313.503 469.724 313.591 468.788 313.767 467.94C313.943 467.092 314.207 466.332 314.559 465.66C314.911 464.972 315.351 464.364 315.879 463.836C316.423 463.308 317.055 462.868 317.775 462.516C318.495 462.164 319.311 461.892 320.223 461.7L326.175 460.428L326.607 463.116L321.207 464.22C320.903 464.284 320.535 464.38 320.103 464.508C319.687 464.62 319.255 464.796 318.807 465.036C318.375 465.26 317.967 465.588 317.583 466.02C317.215 466.436 316.911 466.98 316.671 467.652C316.447 468.308 316.335 469.132 316.335 470.124C316.335 470.428 316.343 470.66 316.359 470.82C316.391 470.964 316.415 471.124 316.431 471.3C316.463 471.46 316.479 471.7 316.479 472.02L315.351 470.844C315.671 470.028 316.111 469.332 316.671 468.756C317.247 468.164 317.911 467.716 318.663 467.412C319.431 467.092 320.263 466.932 321.159 466.932C322.359 466.932 323.423 467.18 324.351 467.676C325.279 468.172 326.007 468.868 326.535 469.764C327.063 470.66 327.327 471.676 327.327 472.812C327.327 473.996 327.039 475.044 326.463 475.956C325.887 476.868 325.071 477.588 324.015 478.116C322.975 478.628 321.751 478.884 320.343 478.884ZM320.583 476.46C321.303 476.46 321.935 476.308 322.479 476.004C323.039 475.684 323.471 475.252 323.775 474.708C324.095 474.164 324.255 473.556 324.255 472.884C324.255 472.212 324.095 471.628 323.775 471.132C323.471 470.62 323.039 470.212 322.479 469.908C321.935 469.604 321.287 469.452 320.535 469.452C319.815 469.452 319.167 469.596 318.591 469.884C318.031 470.172 317.591 470.572 317.271 471.084C316.967 471.58 316.815 472.156 316.815 472.812C316.815 473.484 316.975 474.1 317.295 474.66C317.615 475.22 318.055 475.66 318.615 475.98C319.191 476.3 319.847 476.46 320.583 476.46ZM330.231 478.644V465.828H333.231V471.036H339.687V465.828H342.687V478.644H339.687V473.58H333.231V478.644H330.231ZM352.683 478.812C351.259 478.812 350.011 478.532 348.939 477.972C347.883 477.396 347.059 476.612 346.467 475.62C345.891 474.628 345.603 473.5 345.603 472.236C345.603 470.956 345.883 469.828 346.443 468.852C347.019 467.86 347.803 467.084 348.795 466.524C349.803 465.964 350.947 465.684 352.227 465.684C353.475 465.684 354.587 465.956 355.563 466.5C356.539 467.044 357.307 467.812 357.867 468.804C358.427 469.796 358.707 470.964 358.707 472.308C358.707 472.436 358.699 472.58 358.683 472.74C358.683 472.9 358.675 473.052 358.659 473.196H347.979V471.204H357.075L355.899 471.828C355.915 471.092 355.763 470.444 355.443 469.884C355.123 469.324 354.683 468.884 354.123 468.564C353.579 468.244 352.947 468.084 352.227 468.084C351.491 468.084 350.843 468.244 350.283 468.564C349.739 468.884 349.307 469.332 348.987 469.908C348.683 470.468 348.531 471.132 348.531 471.9V472.38C348.531 473.148 348.707 473.828 349.059 474.42C349.411 475.012 349.907 475.468 350.547 475.788C351.187 476.108 351.923 476.268 352.755 476.268C353.475 476.268 354.123 476.156 354.699 475.932C355.275 475.708 355.787 475.356 356.235 474.876L357.843 476.724C357.267 477.396 356.539 477.916 355.659 478.284C354.795 478.636 353.803 478.812 352.683 478.812ZM367.965 478.812C366.541 478.812 365.293 478.532 364.221 477.972C363.165 477.396 362.341 476.612 361.749 475.62C361.173 474.628 360.885 473.5 360.885 472.236C360.885 470.956 361.165 469.828 361.725 468.852C362.301 467.86 363.085 467.084 364.077 466.524C365.085 465.964 366.229 465.684 367.509 465.684C368.757 465.684 369.869 465.956 370.845 466.5C371.821 467.044 372.589 467.812 373.149 468.804C373.709 469.796 373.989 470.964 373.989 472.308C373.989 472.436 373.981 472.58 373.965 472.74C373.965 472.9 373.957 473.052 373.941 473.196H363.261V471.204H372.357L371.181 471.828C371.197 471.092 371.045 470.444 370.725 469.884C370.405 469.324 369.965 468.884 369.405 468.564C368.861 468.244 368.229 468.084 367.509 468.084C366.773 468.084 366.125 468.244 365.565 468.564C365.021 468.884 364.589 469.332 364.269 469.908C363.965 470.468 363.813 471.132 363.813 471.9V472.38C363.813 473.148 363.989 473.828 364.341 474.42C364.693 475.012 365.189 475.468 365.829 475.788C366.469 476.108 367.205 476.268 368.037 476.268C368.757 476.268 369.405 476.156 369.981 475.932C370.557 475.708 371.069 475.356 371.517 474.876L373.125 476.724C372.549 477.396 371.821 477.916 370.941 478.284C370.077 478.636 369.085 478.812 367.965 478.812Z" fill="white"/>
</svg>
